<svg width="27" height="26" viewBox="0 0 27 26" fill="none" xmlns="http://www.w3.org/2000/svg">
<path d="M21.3323 16.5316L18.5806 16.2174C18.2571 16.1794 17.9291 16.2152 17.6214 16.3222C17.3137 16.4291 17.0342 16.6044 16.804 16.8349L14.8106 18.8282C11.7353 17.2641 9.23556 14.7645 7.67147 11.6891L9.67563 9.68491C10.1415 9.21908 10.369 8.56908 10.2931 7.90824L9.97897 5.17824C9.91755 4.64977 9.66393 4.16233 9.26639 3.80874C8.86885 3.45516 8.35517 3.26011 7.82313 3.26074H5.94897C4.7248 3.26074 3.70647 4.27908 3.7823 5.50324C4.35647 14.7549 11.7556 22.1432 20.9965 22.7174C22.2206 22.7932 23.239 21.7749 23.239 20.5507V18.6766C23.2498 17.5824 22.4265 16.6616 21.3323 16.5316Z" fill="#4B9B19"/>
</svg>
